# Blender 4.5.3 LTS
# www.blender.org
mtllib prototipo.mtl
o Cube
v 0.199503 1.448658 -0.136272
v 0.194412 0.946348 -0.075816
v 0.199503 1.468411 0.140956
v 0.194412 0.962495 0.063318
v 0.175482 1.626931 -0.137819
v 0.175482 1.647281 0.046318
v 0.147320 1.260610 -0.136272
v 0.147320 1.275944 0.093228
v 0.000000 0.941918 -0.116137
v 0.000000 1.492593 0.176593
v 0.000000 0.938312 0.098955
v 0.000000 1.492593 -0.176593
v 0.000000 1.618330 0.143448
v 0.000000 1.617535 -0.203109
v 0.000000 1.316000 -0.176593
v 0.000000 1.311581 0.128865
v 0.168795 1.700482 -0.110755
v 0.165260 1.690521 0.052105
v 0.000000 1.700394 0.103675
v 0.000000 1.715537 -0.167047
v 0.046307 1.797526 -0.016421
v 0.046307 1.801552 0.089680
v 0.000000 1.797734 0.107358
v 0.000000 1.785036 -0.056742
v 0.000000 1.758772 -0.122501
v 0.087268 1.744746 -0.082180
v 0.087268 1.744765 0.063754
v 0.000000 1.740594 0.077896
v 0.275793 1.642781 -0.158956
v 0.275793 1.643179 0.014366
v 0.271338 1.703882 -0.132012
v 0.271338 1.703944 -0.005526
v 0.232320 1.251408 -0.176593
v 0.232320 1.236383 -0.063109
v 0.333747 1.261269 -0.176593
v 0.333747 1.246244 -0.063109
v 0.251754 0.858448 -0.072227
v 0.251754 0.858448 0.028105
v 0.353182 0.868309 -0.072227
v 0.353182 0.868309 0.028105
v 0.277786 0.689759 -0.062257
v 0.277786 0.689759 0.049742
v 0.379213 0.699620 -0.062257
v 0.379213 0.699620 0.049742
v 0.198409 0.603487 -0.091608
v 0.198409 0.612857 -0.052214
v 0.065330 0.605080 -0.131929
v 0.065330 0.594698 -0.016576
v 0.209931 0.135859 -0.140691
v 0.209931 0.145465 -0.089236
v 0.087673 0.151746 -0.181012
v 0.087673 0.141599 -0.053599
v 0.229338 0.488739 -0.059295
v 0.229338 0.464776 -0.134550
v 0.042686 0.459415 -0.174870
v 0.042686 0.463624 -0.023658
v 0.304770 1.444711 -0.024371
v 0.304770 1.453086 -0.131713
v 0.204457 1.437654 -0.132577
v 0.204457 1.437963 -0.018165
v 0.215377 0.025592 -0.159857
v 0.215377 0.022153 -0.048016
v 0.089584 0.038828 -0.199294
v 0.089584 0.020727 -0.047133
v 0.087649 0.045650 0.150549
v 0.209907 0.044425 0.150549
v 0.089560 0.021118 0.149944
v 0.215353 0.022545 0.149060
v 0.209925 0.092389 0.005822
v 0.215370 0.016950 0.009614
v 0.089577 0.015524 0.010498
v 0.087667 0.093615 0.005822
v 0.088628 0.102800 -0.177337
v 0.088628 0.082047 -0.054343
v 0.212654 0.082147 -0.054785
v 0.212654 0.088238 -0.137458
v 0.088604 0.028523 0.162178
v 0.212630 0.028623 0.161737
v 0.088622 0.057221 0.004625
v 0.212647 0.057322 0.004183
v 0.219634 0.331244 -0.081778
v 0.065180 0.316753 -0.046141
v 0.219634 0.300317 -0.125247
v 0.065180 0.305580 -0.165567
v 0.032665 0.745505 0.061553
v 0.196410 0.766675 0.025916
v 0.196410 0.764311 -0.080531
v 0.032665 0.762893 -0.120851
v 0.038230 1.857113 -0.027164
v 0.042140 1.834251 0.076450
v 0.000000 1.824762 0.093743
v 0.000000 1.847498 -0.048779
v 0.070105 1.891009 0.009129
v 0.077893 1.802813 0.166631
v 0.000000 1.792223 0.184884
v 0.000000 1.895225 0.006846
v 0.086731 2.127934 0.095853
v 0.089951 2.108656 0.180684
v 0.000000 2.103285 0.201171
v 0.000000 2.128803 0.058063
v 0.000000 2.023489 -0.003982
v 0.103675 1.932741 0.215590
v 0.000000 1.935263 0.238402
v 0.095299 2.014728 0.031483
v -0.199503 1.448658 -0.136272
v -0.194412 0.946348 -0.075816
v -0.199503 1.468411 0.140956
v -0.194412 0.962495 0.063318
v -0.175482 1.626931 -0.137819
v -0.175482 1.647281 0.046318
v -0.147320 1.260610 -0.136272
v -0.147320 1.275944 0.093228
v -0.168795 1.700482 -0.110755
v -0.165260 1.690521 0.052105
v -0.046307 1.797526 -0.016421
v -0.046307 1.801552 0.089680
v -0.087268 1.744746 -0.082180
v -0.087268 1.744765 0.063754
v -0.275793 1.642781 -0.158956
v -0.275793 1.643179 0.014366
v -0.271338 1.703882 -0.132012
v -0.271338 1.703944 -0.005526
v -0.232320 1.251408 -0.176593
v -0.232320 1.236383 -0.063109
v -0.333747 1.261269 -0.176593
v -0.333747 1.246244 -0.063109
v -0.251754 0.858448 -0.072227
v -0.251754 0.858448 0.028105
v -0.353182 0.868309 -0.072227
v -0.353182 0.868309 0.028105
v -0.277786 0.689759 -0.062257
v -0.277786 0.689759 0.049742
v -0.379213 0.699620 -0.062257
v -0.379213 0.699620 0.049742
v -0.198409 0.603487 -0.091608
v -0.198409 0.612857 -0.052214
v -0.065330 0.605080 -0.131929
v -0.065330 0.594698 -0.016576
v -0.209931 0.135859 -0.140691
v -0.209931 0.145465 -0.089236
v -0.087673 0.151746 -0.181012
v -0.087673 0.141599 -0.053599
v -0.229338 0.488739 -0.059295
v -0.229338 0.464776 -0.134550
v -0.042686 0.459415 -0.174870
v -0.042686 0.463624 -0.023658
v -0.304770 1.444711 -0.024371
v -0.304770 1.453086 -0.131713
v -0.204457 1.437654 -0.132577
v -0.204457 1.437963 -0.018165
v -0.215377 0.025592 -0.159857
v -0.215377 0.022153 -0.048016
v -0.089584 0.038828 -0.199294
v -0.089584 0.020727 -0.047133
v -0.087649 0.045650 0.150549
v -0.209907 0.044425 0.150549
v -0.089560 0.021118 0.149944
v -0.215353 0.022545 0.149060
v -0.209925 0.092389 0.005822
v -0.215370 0.016950 0.009614
v -0.089577 0.015524 0.010498
v -0.087667 0.093615 0.005822
v -0.088628 0.102800 -0.177337
v -0.088628 0.082047 -0.054343
v -0.212654 0.082147 -0.054785
v -0.212654 0.088238 -0.137458
v -0.088604 0.028523 0.162178
v -0.212630 0.028623 0.161737
v -0.088622 0.057221 0.004625
v -0.212647 0.057322 0.004183
v -0.219634 0.331244 -0.081778
v -0.065180 0.316753 -0.046141
v -0.219634 0.300317 -0.125247
v -0.065180 0.305580 -0.165567
v -0.032665 0.745505 0.061553
v -0.196410 0.766675 0.025916
v -0.196410 0.764311 -0.080531
v -0.032665 0.762893 -0.120851
v -0.038230 1.857113 -0.027164
v -0.042140 1.834251 0.076450
v -0.070105 1.891009 0.009129
v -0.077893 1.802813 0.166631
v -0.086731 2.127934 0.095853
v -0.089951 2.108656 0.180684
v -0.103675 1.932741 0.215590
v -0.095299 2.014728 0.031483
vn 0.2641 -0.4163 0.8701
vn 0.9636 -0.2666 0.0185
vn 0.2179 -0.0312 -0.9755
vn 0.3031 0.3889 0.8700
vn 0.9914 0.1303 -0.0113
vn 0.2048 -0.1557 -0.9663
vn 0.9889 0.1478 -0.0126
vn 0.2014 -0.0713 0.9769
vn 0.3183 0.3383 -0.8856
vn 0.1502 -0.2645 0.9526
vn 0.2647 -0.0681 -0.9619
vn 0.2710 0.8600 -0.4325
vn 0.3722 0.2711 0.8877
vn -0.2233 0.3469 -0.9109
vn 0.5874 0.0204 -0.8090
vn 0.2367 -0.3547 0.9045
vn 0.7969 0.6040 -0.0097
vn 0.5312 0.8466 0.0333
vn 0.2442 0.3376 0.9091
vn 0.3028 0.7613 -0.5734
vn 0.9973 0.0729 -0.0001
vn 0.3851 0.1772 0.9057
vn 0.9895 0.1437 0.0152
vn -0.0678 0.9971 0.0333
vn -0.0227 0.2334 0.9721
vn -0.0241 0.2254 -0.9740
vn -0.9901 -0.1402 -0.0091
vn 0.0464 -0.1982 0.9791
vn 0.0057 -0.0581 -0.9983
vn 0.9987 0.0513 0.0036
vn 0.0248 -0.2555 -0.9665
vn -0.9987 -0.0513 -0.0036
vn 0.0968 -0.9953 -0.0000
vn -0.9883 -0.1525 -0.0000
vn -0.0122 0.1254 0.9920
vn 0.9883 0.1525 -0.0000
vn 0.9981 -0.0569 0.0243
vn 0.2610 0.0952 -0.9606
vn -0.9792 -0.2018 -0.0188
vn 0.9999 0.0130 -0.0010
vn -0.9999 -0.0150 -0.0021
vn 0.2856 0.1039 -0.9527
vn 0.2512 -0.0311 0.9674
vn -0.9908 -0.1355 0.0006
vn -0.9870 0.1608 0.0037
vn 0.2234 -0.0468 0.9736
vn 0.2311 0.2874 -0.9295
vn 0.9680 0.2412 -0.0701
vn 0.1852 -0.2163 0.9586
vn -0.9893 -0.1453 0.0101
vn -0.0849 -0.0980 -0.9916
vn 0.9890 0.1475 0.0042
vn -0.0343 -0.9961 -0.0813
vn 0.9990 0.0441 0.0022
vn 0.3189 0.3216 -0.8916
vn 0.9933 0.1117 0.0284
vn 0.0079 -0.8789 0.4769
vn 0.0116 -0.9991 0.0401
vn 0.0095 0.9492 0.3146
vn -0.9993 -0.0385 -0.0031
vn -0.9998 -0.0192 -0.0050
vn 0.0706 0.8347 0.5461
vn 0.0107 -0.9959 -0.0899
vn 0.9972 0.0664 0.0337
vn 0.9983 0.0559 0.0145
vn -0.9997 -0.0197 -0.0122
vn -0.9992 -0.0375 -0.0096
vn 0.0041 0.5699 0.8217
vn 0.9933 0.1150 0.0091
vn 0.3028 -0.0565 -0.9514
vn 0.9988 0.0486 -0.0013
vn -0.9998 -0.0177 -0.0022
vn -0.9889 -0.1483 0.0084
vn 0.2175 -0.1337 0.9668
vn 0.2298 -0.0476 -0.9721
vn 0.9977 -0.0613 0.0283
vn 0.9999 0.0107 -0.0008
vn -0.9850 -0.1720 -0.0091
vn 0.2187 0.0464 -0.9747
vn 0.2127 -0.1664 0.9629
vn 0.1143 0.7228 -0.6815
vn 0.9915 0.1298 -0.0068
vn 0.2815 0.4097 0.8677
vn 0.2105 0.2087 0.9551
vn 0.0556 -0.9381 -0.3420
vn 0.6354 -0.6999 -0.3262
vn -0.0439 0.9802 0.1933
vn 0.9968 0.0782 -0.0135
vn 0.3493 0.4794 -0.8051
vn 0.2241 0.0222 -0.9743
vn 0.9788 -0.1611 -0.1266
vn 0.2210 -0.3610 0.9060
vn -0.2641 -0.4163 0.8701
vn -0.9636 -0.2666 0.0185
vn -0.2179 -0.0312 -0.9755
vn -0.3031 0.3889 0.8700
vn -0.9914 0.1303 -0.0113
vn -0.2048 -0.1557 -0.9663
vn -0.9889 0.1478 -0.0126
vn -0.2014 -0.0713 0.9769
vn -0.3183 0.3383 -0.8856
vn -0.1502 -0.2645 0.9526
vn -0.2647 -0.0681 -0.9619
vn -0.2710 0.8600 -0.4325
vn -0.3722 0.2711 0.8877
vn 0.2233 0.3469 -0.9109
vn -0.5874 0.0204 -0.8090
vn -0.2367 -0.3547 0.9045
vn -0.7969 0.6040 -0.0097
vn -0.5312 0.8466 0.0333
vn -0.2442 0.3376 0.9091
vn -0.3028 0.7613 -0.5734
vn -0.9973 0.0729 -0.0001
vn -0.3851 0.1772 0.9057
vn -0.9895 0.1437 0.0152
vn 0.0678 0.9971 0.0333
vn 0.0227 0.2334 0.9721
vn 0.0241 0.2254 -0.9740
vn 0.9901 -0.1402 -0.0091
vn -0.0464 -0.1982 0.9791
vn -0.0057 -0.0581 -0.9983
vn -0.9987 0.0513 0.0036
vn -0.0248 -0.2555 -0.9665
vn 0.9987 -0.0513 -0.0036
vn -0.0968 -0.9953 -0.0000
vn 0.9883 -0.1525 -0.0000
vn 0.0122 0.1254 0.9920
vn -0.9883 0.1525 -0.0000
vn -0.9981 -0.0569 0.0243
vn -0.2610 0.0952 -0.9606
vn 0.9792 -0.2018 -0.0188
vn -0.9999 0.0130 -0.0010
vn 0.9999 -0.0150 -0.0021
vn -0.2856 0.1039 -0.9527
vn -0.2512 -0.0311 0.9674
vn 0.9908 -0.1355 0.0006
vn 0.9870 0.1608 0.0037
vn -0.2234 -0.0468 0.9736
vn -0.2311 0.2874 -0.9295
vn -0.9680 0.2412 -0.0701
vn -0.1852 -0.2163 0.9586
vn 0.9893 -0.1453 0.0101
vn 0.0849 -0.0980 -0.9916
vn -0.9890 0.1475 0.0042
vn 0.0343 -0.9961 -0.0813
vn -0.9990 0.0441 0.0022
vn -0.3189 0.3216 -0.8916
vn -0.9933 0.1117 0.0284
vn -0.0079 -0.8789 0.4769
vn -0.0116 -0.9991 0.0401
vn -0.0095 0.9492 0.3146
vn 0.9993 -0.0385 -0.0031
vn 0.9998 -0.0192 -0.0050
vn -0.0706 0.8347 0.5461
vn -0.0107 -0.9959 -0.0899
vn -0.9972 0.0664 0.0337
vn -0.9983 0.0559 0.0145
vn 0.9997 -0.0197 -0.0122
vn 0.9992 -0.0375 -0.0096
vn -0.0041 0.5699 0.8217
vn -0.9933 0.1150 0.0091
vn -0.3028 -0.0565 -0.9514
vn -0.9988 0.0486 -0.0013
vn 0.9998 -0.0177 -0.0022
vn 0.9889 -0.1483 0.0084
vn -0.2175 -0.1337 0.9668
vn -0.2298 -0.0476 -0.9721
vn -0.9977 -0.0613 0.0283
vn -0.9999 0.0107 -0.0008
vn 0.9850 -0.1720 -0.0091
vn -0.2187 0.0464 -0.9747
vn -0.2127 -0.1664 0.9629
vn -0.1143 0.7228 -0.6815
vn -0.9915 0.1298 -0.0068
vn -0.2815 0.4097 0.8677
vn -0.2105 0.2087 0.9551
vn -0.0556 -0.9381 -0.3420
vn -0.6354 -0.6999 -0.3262
vn 0.0439 0.9802 0.1933
vn -0.9968 0.0782 -0.0135
vn -0.3493 0.4794 -0.8051
vn -0.2241 0.0222 -0.9743
vn -0.9788 -0.1611 -0.1266
vn -0.2210 -0.3610 0.9060
vt 0.375000 0.750000
vt 0.375000 0.875000
vt 0.500000 0.500000
vt 0.625000 0.500000
vt 0.625000 0.750000
vt 0.500000 0.750000
vt 0.500000 0.375000
vt 0.625000 0.375000
vt 0.625000 0.875000
vt 0.375000 0.375000
vt 0.375000 0.500000
vt 0.500000 0.875000
vt 0.625000 0.500000
vt 0.625000 0.750000
vt 0.625000 0.500000
vt 0.375000 0.500000
vt 0.000000 0.000000
vt 0.375000 0.875000
vt 0.375000 0.375000
vt 0.250000 0.500000
vt 0.250000 0.750000
vt 0.375000 0.500000
vt 0.375000 0.750000
vt 0.375000 0.750000
vt 0.375000 0.875000
vt 0.750000 0.500000
vt 0.750000 0.750000
s 0
usemtl Material
f 86/1/1 85/2/1 48/2/1 46/1/1
f 7/3/2 1/4/2 3/5/2 8/6/2
f 15/7/3 12/8/3 1/4/3 7/3/3
f 10/9/4 3/5/4 6/5/4 13/9/4
f 3/5/5 1/4/5 5/4/5 6/5/5
f 9/10/6 15/7/6 7/3/6 2/11/6
f 2/11/7 7/3/7 8/6/7 4/1/7
f 4/1/8 8/6/8 16/12/8 11/2/8
f 5/4/9 14/8/9 20/8/9 17/4/9
f 8/6/10 3/5/10 10/9/10 16/12/10
f 1/4/11 12/8/11 14/8/11 5/4/11
f 26/13/12 25/8/12 24/8/12 21/4/12
f 13/9/13 6/5/13 18/5/13 19/9/13
f 5/4/14 17/4/14 31/4/14 29/4/14
f 21/4/15 24/8/15 92/8/15 89/4/15
f 28/9/16 27/14/16 22/5/16 23/9/16
f 27/14/17 26/13/17 21/4/17 22/5/17
f 18/5/18 17/4/18 26/13/18 27/14/18
f 19/9/19 18/5/19 27/14/19 28/9/19
f 17/4/20 20/8/20 25/8/20 26/13/20
f 30/5/21 29/4/21 31/4/21 32/5/21
f 18/5/22 6/5/22 30/5/22 32/5/22
f 58/15/23 57/5/23 36/5/23 35/4/23
f 17/4/24 18/5/24 32/5/24 31/4/24
f 36/5/25 34/5/25 38/5/25 40/5/25
f 59/4/26 58/15/26 35/4/26 33/4/26
f 60/5/27 59/4/27 33/4/27 34/5/27
f 57/5/28 60/5/28 34/5/28 36/5/28
f 37/4/29 39/4/29 43/4/29 41/4/29
f 35/4/30 36/5/30 40/5/30 39/4/30
f 33/4/31 35/4/31 39/4/31 37/4/31
f 34/5/32 33/4/32 37/4/32 38/5/32
f 42/5/33 41/4/33 43/4/33 44/5/33
f 38/5/34 37/4/34 41/4/34 42/5/34
f 40/5/35 38/5/35 42/5/35 44/5/35
f 39/4/36 40/5/36 44/5/36 43/4/36
f 83/11/37 81/1/37 50/1/37 49/11/37
f 88/10/38 87/16/38 45/11/38 47/10/38
f 85/17/39 88/17/39 47/17/39 48/17/39
f 87/16/40 86/1/40 46/1/40 45/11/40
f 74/17/41 73/17/41 63/17/41 64/17/41
f 84/10/42 83/11/42 49/11/42 51/10/42
f 81/1/43 82/2/43 52/2/43 50/1/43
f 82/17/44 84/17/44 51/17/44 52/17/44
f 48/17/45 47/17/45 55/17/45 56/17/45
f 46/1/46 48/2/46 56/18/46 53/1/46
f 47/10/47 45/11/47 54/11/47 55/19/47
f 45/11/48 46/1/48 53/1/48 54/11/48
f 30/5/49 6/5/49 60/5/49 57/5/49
f 6/5/50 5/4/50 59/4/50 60/5/50
f 5/4/51 29/4/51 58/15/51 59/4/51
f 29/4/52 30/5/52 57/5/52 58/15/52
f 63/20/53 61/11/53 62/1/53 64/21/53
f 76/22/54 75/1/54 62/1/54 61/11/54
f 73/19/55 76/22/55 61/11/55 63/10/55
f 80/23/56 69/1/56 66/1/56 78/24/56
f 78/24/57 77/25/57 67/2/57 68/1/57
f 71/21/58 70/1/58 68/1/58 67/21/58
f 69/1/59 72/2/59 65/2/59 66/1/59
f 79/17/60 71/17/60 67/17/60 77/17/60
f 74/17/61 64/17/61 71/17/61 79/17/61
f 50/1/62 52/2/62 72/2/62 69/1/62
f 64/21/63 62/1/63 70/1/63 71/21/63
f 75/1/64 50/1/64 69/1/64 80/23/64
f 62/1/65 75/1/65 80/23/65 70/1/65
f 52/17/66 74/17/66 79/17/66 72/17/66
f 72/17/67 79/17/67 77/17/67 65/17/67
f 66/1/68 65/2/68 77/25/68 78/24/68
f 70/1/69 80/23/69 78/24/69 68/1/69
f 51/10/70 49/11/70 76/22/70 73/19/70
f 49/11/71 50/1/71 75/1/71 76/22/71
f 52/17/72 51/17/72 73/17/72 74/17/72
f 56/17/73 55/17/73 84/17/73 82/17/73
f 53/1/74 56/18/74 82/2/74 81/1/74
f 55/19/75 54/11/75 83/11/75 84/10/75
f 54/11/76 53/1/76 81/1/76 83/11/76
f 2/11/77 4/1/77 86/1/77 87/16/77
f 11/17/78 9/17/78 88/17/78 85/17/78
f 9/10/79 2/11/79 87/16/79 88/10/79
f 4/1/80 11/2/80 85/2/80 86/1/80
f 89/4/81 92/8/81 96/8/81 93/4/81
f 22/5/82 21/4/82 89/4/82 90/5/82
f 23/9/83 22/5/83 90/5/83 91/9/83
f 103/9/84 102/14/84 98/5/84 99/9/84
f 91/9/85 90/5/85 94/5/85 95/9/85
f 90/5/86 89/4/86 93/4/86 94/5/86
f 97/4/87 100/26/87 99/27/87 98/5/87
f 102/14/88 104/4/88 97/4/88 98/5/88
f 104/4/89 101/8/89 100/8/89 97/4/89
f 93/4/90 96/8/90 101/8/90 104/4/90
f 94/5/91 93/4/91 104/4/91 102/14/91
f 95/9/92 94/5/92 102/14/92 103/9/92
f 176/1/93 136/1/93 138/2/93 175/2/93
f 111/3/94 112/6/94 107/5/94 105/4/94
f 15/7/95 111/3/95 105/4/95 12/8/95
f 10/9/96 13/9/96 110/5/96 107/5/96
f 107/5/97 110/5/97 109/4/97 105/4/97
f 9/10/98 106/11/98 111/3/98 15/7/98
f 106/11/99 108/1/99 112/6/99 111/3/99
f 108/1/100 11/2/100 16/12/100 112/6/100
f 109/4/101 113/4/101 20/8/101 14/8/101
f 112/6/102 16/12/102 10/9/102 107/5/102
f 105/4/103 109/4/103 14/8/103 12/8/103
f 117/13/104 115/4/104 24/8/104 25/8/104
f 13/9/105 19/9/105 114/5/105 110/5/105
f 109/4/106 119/4/106 121/4/106 113/4/106
f 115/4/107 179/4/107 92/8/107 24/8/107
f 28/9/108 23/9/108 116/5/108 118/14/108
f 118/14/109 116/5/109 115/4/109 117/13/109
f 114/5/110 118/14/110 117/13/110 113/4/110
f 19/9/111 28/9/111 118/14/111 114/5/111
f 113/4/112 117/13/112 25/8/112 20/8/112
f 120/5/113 122/5/113 121/4/113 119/4/113
f 114/5/114 122/5/114 120/5/114 110/5/114
f 148/15/115 125/4/115 126/5/115 147/5/115
f 113/4/116 121/4/116 122/5/116 114/5/116
f 126/5/117 130/5/117 128/5/117 124/5/117
f 149/4/118 123/4/118 125/4/118 148/15/118
f 150/5/119 124/5/119 123/4/119 149/4/119
f 147/5/120 126/5/120 124/5/120 150/5/120
f 127/4/121 131/4/121 133/4/121 129/4/121
f 125/4/122 129/4/122 130/5/122 126/5/122
f 123/4/123 127/4/123 129/4/123 125/4/123
f 124/5/124 128/5/124 127/4/124 123/4/124
f 132/5/125 134/5/125 133/4/125 131/4/125
f 128/5/126 132/5/126 131/4/126 127/4/126
f 130/5/127 134/5/127 132/5/127 128/5/127
f 129/4/128 133/4/128 134/5/128 130/5/128
f 173/11/129 139/11/129 140/1/129 171/1/129
f 178/10/130 137/10/130 135/11/130 177/16/130
f 175/17/131 138/17/131 137/17/131 178/17/131
f 177/16/132 135/11/132 136/1/132 176/1/132
f 164/17/133 154/17/133 153/17/133 163/17/133
f 174/10/134 141/10/134 139/11/134 173/11/134
f 171/1/135 140/1/135 142/2/135 172/2/135
f 172/17/136 142/17/136 141/17/136 174/17/136
f 138/17/137 146/17/137 145/17/137 137/17/137
f 136/1/138 143/1/138 146/18/138 138/2/138
f 137/10/139 145/19/139 144/11/139 135/11/139
f 135/11/140 144/11/140 143/1/140 136/1/140
f 120/5/141 147/5/141 150/5/141 110/5/141
f 110/5/142 150/5/142 149/4/142 109/4/142
f 109/4/143 149/4/143 148/15/143 119/4/143
f 119/4/144 148/15/144 147/5/144 120/5/144
f 153/20/145 154/21/145 152/1/145 151/11/145
f 166/22/146 151/11/146 152/1/146 165/1/146
f 163/19/147 153/10/147 151/11/147 166/22/147
f 170/23/148 168/24/148 156/1/148 159/1/148
f 168/24/149 158/1/149 157/2/149 167/25/149
f 161/21/150 157/21/150 158/1/150 160/1/150
f 159/1/151 156/1/151 155/2/151 162/2/151
f 169/17/152 167/17/152 157/17/152 161/17/152
f 164/17/153 169/17/153 161/17/153 154/17/153
f 140/1/154 159/1/154 162/2/154 142/2/154
f 154/21/155 161/21/155 160/1/155 152/1/155
f 165/1/156 170/23/156 159/1/156 140/1/156
f 152/1/157 160/1/157 170/23/157 165/1/157
f 142/17/158 162/17/158 169/17/158 164/17/158
f 162/17/159 155/17/159 167/17/159 169/17/159
f 156/1/160 168/24/160 167/25/160 155/2/160
f 160/1/161 158/1/161 168/24/161 170/23/161
f 141/10/162 163/19/162 166/22/162 139/11/162
f 139/11/163 166/22/163 165/1/163 140/1/163
f 142/17/164 164/17/164 163/17/164 141/17/164
f 146/17/165 172/17/165 174/17/165 145/17/165
f 143/1/166 171/1/166 172/2/166 146/18/166
f 145/19/167 174/10/167 173/11/167 144/11/167
f 144/11/168 173/11/168 171/1/168 143/1/168
f 106/11/169 177/16/169 176/1/169 108/1/169
f 11/17/170 175/17/170 178/17/170 9/17/170
f 9/10/171 178/10/171 177/16/171 106/11/171
f 108/1/172 176/1/172 175/2/172 11/2/172
f 179/4/173 181/4/173 96/8/173 92/8/173
f 116/5/174 180/5/174 179/4/174 115/4/174
f 23/9/175 91/9/175 180/5/175 116/5/175
f 103/9/176 99/9/176 184/5/176 185/14/176
f 91/9/177 95/9/177 182/5/177 180/5/177
f 180/5/178 182/5/178 181/4/178 179/4/178
f 183/4/179 184/5/179 99/27/179 100/26/179
f 185/14/180 184/5/180 183/4/180 186/4/180
f 186/4/181 183/4/181 100/8/181 101/8/181
f 181/4/182 186/4/182 101/8/182 96/8/182
f 182/5/183 185/14/183 186/4/183 181/4/183
f 95/9/184 103/9/184 185/14/184 182/5/184
